<svg width="895" height="306" viewBox="0 0 895 306" fill="none" xmlns="http://www.w3.org/2000/svg">
<path d="M492.088 45.436C476.852 38.2034 459.822 34.146 441.871 34.146C376.682 34.146 323.882 87.3767 323.882 153C323.882 218.623 376.726 271.854 441.871 271.854C459.822 271.854 476.852 267.797 492.088 260.564C464.856 232.956 448.045 194.941 448.045 153C448.045 111.059 464.856 73.0437 492.088 45.436Z" fill="white"/>
<path d="M726.794 45.436C742.03 38.2034 759.061 34.146 777.011 34.146C842.2 34.146 895 87.3767 895 153C895 218.623 842.157 271.854 777.011 271.854C759.061 271.854 742.03 267.797 726.794 260.564C754.026 232.956 770.837 194.941 770.837 153C770.837 111.059 754.026 73.0437 726.794 45.436Z" fill="white"/>
<path d="M599.774 0C557.682 0 519.579 17.2849 492.088 45.1794C532.207 64.2326 559.962 105.345 559.962 153C559.962 200.655 532.207 241.767 492.088 260.821C519.579 288.715 557.682 306 599.774 306C683.607 306 751.568 237.479 751.568 152.956C751.568 68.4322 683.607 0 599.774 0Z" fill="white"/>
<path d="M213.949 213.369V56.2637H151.693V9.91263H272.673V215.758C272.673 240.394 288.382 248.411 304.935 248.411C314.107 248.411 323.754 246.446 335.773 241.88L348.741 285.311C328.182 292.054 314.265 296.089 289.7 296.089C239.885 296.089 214.002 263.861 214.002 213.316L213.949 213.369Z" fill="white"/>
<path d="M0 235.508C0 190.485 36.953 167.495 131.312 161.761C129.256 143.815 115.761 132.771 88.9824 132.771C69.7415 132.771 50.6061 140.258 28.1497 151.62L7.01106 112.543C34.6863 96.6675 66.526 85.3585 100.422 85.3585C156.563 85.3585 190.564 114.719 190.564 176.362V291.257H142.172L137.902 268.586H136.426C116.236 283.877 91.3019 296.089 65.6825 296.089C25.3031 296.089 0.0527147 269.276 0.0527147 235.508H0ZM131.312 197.812C72.5881 200.785 56.8265 213.581 56.8265 230.783C56.8265 243.738 67.633 250.003 84.3962 250.003C102.161 250.003 117.238 241.827 131.312 230.783V197.812Z" fill="white"/>
</svg>
